<?xml version="1.0" ?><!DOCTYPE svg  PUBLIC '-//W3C//DTD SVG 1.0//EN'  'http://www.w3.org/TR/2001/REC-SVG-20010904/DTD/svg10.dtd'><svg enable-background="new 0 0 32 32" height="32px" id="Layer_1" version="1.0" viewBox="0 0 32 32" width="32px" xml:space="preserve" xmlns="http://www.w3.org/2000/svg" xmlns:xlink="http://www.w3.org/1999/xlink"><path d="M23.023,7.746c0.481,0.48,0.481,1.259,0,1.739l-6.153,6.155C16.629,15.88,16.314,16,16,16s-0.629-0.12-0.871-0.359  L8.976,9.485c-0.481-0.48-0.481-1.259,0-1.739c0.481-0.48,1.26-0.48,1.74,0L16,13.03l5.284-5.284  C21.764,7.266,22.543,7.266,23.023,7.746z M21.284,15.131L16,20.414l-5.284-5.283c-0.48-0.481-1.259-0.481-1.74,0  c-0.481,0.479-0.481,1.259,0,1.739l6.153,6.155c0.241,0.239,0.556,0.36,0.871,0.36s0.629-0.121,0.871-0.36l6.153-6.155  c0.481-0.48,0.481-1.26,0-1.739C22.543,14.649,21.764,14.649,21.284,15.131z M32,16c0,8.822-7.178,16-16,16S0,24.822,0,16  C0,7.179,7.177,0,16,0S32,7.179,32,16z M29.538,16c0-7.465-6.073-13.538-13.538-13.538S2.46,8.535,2.46,16  c0,7.466,6.074,13.539,13.539,13.539S29.538,23.466,29.538,16z"/></svg>